Coordinates
version=1
nRows=10
nColumns=34
inDegrees=yes

Units are S.I. units (second, meters, Newtons, ...)
If the header above contains a line with 'inDegrees', this indicates whether rotational values are in degrees (yes) or radians (no).

endheader
time	pelvis_tilt	pelvis_list	pelvis_rotation	pelvis_tx	pelvis_ty	pelvis_tz	hip_flexion_r	hip_adduction_r	hip_rotation_r	knee_angle_r	ankle_angle_r	subtalar_angle_r	mtp_angle_r	hip_flexion_l	hip_adduction_l	hip_rotation_l	knee_angle_l	ankle_angle_l	subtalar_angle_l	mtp_angle_l	lumbar_extension	lumbar_bending	lumbar_rotation	arm_flex_r	arm_add_r	arm_rot_r	elbow_flex_r	pro_sup_r	arm_flex_l	arm_add_l	arm_rot_l	elbow_flex_l	pro_sup_l
      0.00000000	      4.67218946	      0.67794143	      2.34093618	      0.68849235	      1.14912505	     -0.06084075	    -11.62855065	     -5.16932161	     -7.77313870	      0.75858282	     -4.28984142	    -20.11633335	      0.00000000	     -9.76114673	     -3.65621129	     -3.25278620	      0.00029735	      8.43417690	     -6.73379780	      0.00000000	     -7.47281973	      4.37482255	      0.57506942	     -2.28540106	    -10.41809863	     20.63962951	     20.78788190	     47.36673697	    -51.09942753	   -139.57639643	   -135.05365122	     61.60107285	     45.13010502
      0.01666670	     -0.97861004	      0.00882823	      1.96322534	      0.69071376	      1.14013853	     -0.06095309	     -5.44047148	     -4.81595873	     -9.51563875	      0.98534434	     -2.88546864	    -15.69831638	      0.00000000	     -3.30459976	     -4.00357981	     -4.19201798	      0.00000000	      7.92089937	     -5.58902424	      0.00000000	     -1.64024314	      4.56777693	     -4.33042993	     -0.95425637	    -10.24709305	      8.62757810	     24.62262664	     60.85943047	    -37.79993294	   -137.06792052	   -120.86273760	     51.33830036	     55.47294331
      0.03333330	     -2.55899743	     -0.48123647	      2.11011022	      0.69104974	      1.13715807	     -0.06062742	     -3.97665352	     -4.40661816	    -11.19903782	      0.36558792	     -1.97386453	    -14.66902621	      0.00000000	     -1.35442612	     -4.36251700	     -5.32210698	      0.00000000	      9.23147301	     -3.11571407	      0.00000000	      0.38132781	      4.53187904	     -3.71162604	     -1.28059737	    -10.30579912	      4.87869163	     24.83911874	     63.23241710	    -36.62490631	   -140.37101855	   -121.18289953	     46.94602632	     57.28046179
      0.05000000	     -3.05968464	     -0.56446700	      1.93036228	      0.69034642	      1.13542242	     -0.06037590	     -3.32619928	     -4.39175829	    -11.36406260	      0.30194036	     -0.79238739	    -14.38676389	      0.00000000	     -0.82105122	     -4.36365548	     -5.48795047	      0.00000000	      9.12540375	     -3.16442490	      0.00000000	      1.20091640	      4.06860182	     -1.55671274	     -4.10717507	     -8.06366538	     -9.17198277	     28.57870116	     72.99637783	    -39.24755707	   -143.86297549	   -130.83362755	     48.33176529	     64.67786694
      0.06666670	     -3.13929538	     -0.81125753	      1.74067949	      0.69004088	      1.13455914	     -0.06045368	     -3.11727072	     -4.14205150	    -11.85723099	      0.46803050	      0.51824508	    -13.67068573	      0.00000000	     -0.81401076	     -4.56333958	     -6.14664579	      0.00000000	      9.63232613	     -1.78276435	      0.00000000	      1.89704292	      4.29306225	     -1.83904305	     -3.61525346	     -7.86571912	     -8.90393612	     27.41613421	     75.38592175	    -38.69652927	   -143.91667963	   -133.11772091	     51.29607103	     65.77769831
      0.08333330	     -3.25573201	     -0.95007225	      1.58840443	      0.68973400	      1.13373693	     -0.06045800	     -2.91673631	     -3.97848624	    -11.68142445	      0.50635845	      1.22898772	    -13.81545525	      0.00000000	     -0.80275801	     -4.66392459	     -6.03112466	      0.00000000	      9.65397316	     -1.82652936	      0.00000000	      2.41328403	      4.39507872	     -1.79074779	     -3.44100505	     -7.55242874	     -8.85391359	     27.36492349	     75.69868437	    -37.87073741	   -144.75574432	   -133.59882606	     51.91155478	     65.88145239
      0.10000000	     -3.57697369	     -1.00528295	      1.22226348	      0.69006125	      1.13015346	     -0.06055305	     -2.44241578	     -3.98495348	    -11.70305015	      0.65498443	      2.01065342	    -13.34878015	      0.00000000	     -0.60317960	     -4.66115905	     -6.14978861	      0.00000000	      9.77599695	     -1.90135688	      0.00000000	      2.96686037	      4.72471544	     -2.04473357	     -2.59336259	     -7.94873228	     -8.10477455	     26.06410385	     94.20546060	    -37.22467781	   -146.19882364	   -138.09668940	     49.95347690	     72.49937150
      0.11666670	     -3.51918098	     -1.13120585	      0.96921909	      0.68928147	      1.13308173	     -0.06077366	     -2.34902992	     -3.89819435	    -11.51320693	      0.82442365	      3.02872638	    -12.83297873	      0.00000000	     -0.76779101	     -4.78039061	     -6.14237781	      0.00000000	      9.80011334	     -1.99088048	      0.00000000	      2.81501918	      5.04503992	     -1.99309941	     -1.77789497	     -7.31941568	    -12.45974575	     25.39078801	     96.56944407	    -35.15852131	   -146.58029415	   -136.38513971	     48.52762225	     73.70241848
      0.13333330	     -3.69116243	     -1.30699554	      0.82729062	      0.68942100	      1.13281360	     -0.06104790	     -2.14244985	     -3.73891566	    -11.34987549	      0.86869844	      3.39888640	    -12.79414117	      0.00000000	     -0.66079189	     -4.95634184	     -6.04211808	      0.00000000	      9.97028567	     -1.97376957	      0.00000000	      2.90891654	      5.52017526	     -2.04199681	     -1.46775287	     -7.56619251	    -12.50630540	     25.24022594	     96.77056048	    -34.25596346	   -146.63852212	   -136.79666321	     47.93564946	     73.70772448
      0.15000000	     -3.69543686	     -1.27223923	      0.82030195	      0.68927076	      1.13286542	     -0.06146279	     -2.16551403	     -3.79825915	    -11.35239454	      0.85913871	      3.44126020	    -12.80190415	      0.00000000	     -0.67025968	     -4.91097726	     -6.02010884	      0.00000000	      9.96064369	     -1.95566615	      0.00000000	      2.98000074	      5.71830871	     -2.03872182	     -1.40863990	     -7.64575468	    -12.52105167	     25.24340372	     96.78167286	    -34.18948360	   -146.74335784	   -136.78291813	     47.89609212	     73.71209089
